<svg width="15" height="15" viewBox="0 0 15 15" fill="none" xmlns="http://www.w3.org/2000/svg">
<path fill-rule="evenodd" clip-rule="evenodd" d="M9.375 2.875C9.375 3.70343 8.70343 4.375 7.875 4.375C7.04657 4.375 6.375 3.70343 6.375 2.875C6.375 2.04657 7.04657 1.375 7.875 1.375C8.70343 1.375 9.375 2.04657 9.375 2.875ZM9.37501 7.875C9.37501 8.70343 8.70343 9.375 7.875 9.375C7.04657 9.375 6.375 8.70343 6.375 7.875C6.375 7.04657 7.04657 6.375 7.875 6.375C8.70343 6.375 9.37501 7.04657 9.37501 7.875ZM7.875 14.375C8.70343 14.375 9.375 13.7034 9.375 12.875C9.375 12.0466 8.70343 11.375 7.875 11.375C7.04657 11.375 6.375 12.0466 6.375 12.875C6.375 13.7034 7.04657 14.375 7.875 14.375Z" fill="black"/>
</svg>
