<svg width="1202" height="42" viewBox="0 0 1202 42" fill="none" xmlns="http://www.w3.org/2000/svg">
<path d="M1 21C7.66667 -5.66667 14.3333 -5.66667 21 21C27.6667 47.6667 34.3333 47.6667 41 21C47.6667 -5.66667 54.3333 -5.66667 61 21C67.6667 47.6667 74.3333 47.6667 81 21C87.6667 -5.66667 94.3333 -5.66667 101 21C107.667 47.6667 114.333 47.6667 121 21C127.667 -5.66667 134.333 -5.66667 141 21C147.667 47.6667 154.333 47.6667 161 21C167.667 -5.66667 174.333 -5.66667 181 21C187.667 47.6667 194.333 47.6667 201 21C207.667 -5.66667 214.333 -5.66667 221 21C227.667 47.6667 234.333 47.6667 241 21C247.667 -5.66667 254.333 -5.66667 261 21C267.667 47.6667 274.333 47.6667 281 21C287.667 -5.66667 294.333 -5.66667 301 21C307.667 47.6667 314.333 47.6667 321 21C327.667 -5.66667 334.333 -5.66667 341 21C347.667 47.6667 354.333 47.6667 361 21C367.667 -5.66667 374.333 -5.66667 381 21C387.667 47.6667 394.333 47.6667 401 21C407.667 -5.66667 414.333 -5.66667 421 21C427.667 47.6667 434.333 47.6667 441 21C447.667 -5.66667 454.333 -5.66667 461 21C467.667 47.6667 474.333 47.6667 481 21C487.667 -5.66667 494.333 -5.66667 501 21C507.667 47.6667 514.333 47.6667 521 21C527.667 -5.66667 534.333 -5.66667 541 21C547.667 47.6667 554.333 47.6667 561 21C567.667 -5.66667 574.333 -5.66667 581 21C587.667 47.6667 594.333 47.6667 601 21C607.667 -5.66667 614.333 -5.66667 621 21C627.667 47.6667 634.333 47.6667 641 21C647.667 -5.66667 654.333 -5.66667 661 21C667.667 47.6667 674.333 47.6667 681 21C687.667 -5.66667 694.333 -5.66667 701 21C707.667 47.6667 714.333 47.6667 721 21C727.667 -5.66667 734.333 -5.66667 741 21C747.667 47.6667 754.333 47.6667 761 21C767.667 -5.66667 774.333 -5.66667 781 21C787.667 47.6667 794.333 47.6667 801 21C807.667 -5.66667 814.333 -5.66667 821 21C827.667 47.6667 834.333 47.6667 841 21C847.667 -5.66667 854.333 -5.66667 861 21C867.667 47.6667 874.333 47.6667 881 21C887.667 -5.66667 894.333 -5.66667 901 21C907.667 47.6667 914.333 47.6667 921 21C927.667 -5.66667 934.333 -5.66667 941 21C947.667 47.6667 954.333 47.6667 961 21C967.667 -5.66667 974.333 -5.66667 981 21C987.667 47.6667 994.333 47.6667 1001 21C1007.67 -5.66667 1014.33 -5.66667 1021 21C1027.67 47.6667 1034.33 47.6667 1041 21C1047.67 -5.66667 1054.33 -5.66667 1061 21C1067.67 47.6667 1074.33 47.6667 1081 21C1087.67 -5.66667 1094.33 -5.66667 1101 21C1107.67 47.6667 1114.33 47.6667 1121 21C1127.67 -5.66667 1134.33 -5.66667 1141 21C1147.67 47.6667 1154.33 47.6667 1161 21C1167.67 -5.66667 1174.33 -5.66667 1181 21C1187.67 47.6667 1194.33 47.6667 1201 21" stroke="#4C75F2" stroke-width="2"/>
</svg>
